<?xml version="1.0" standalone="no"?>
<!DOCTYPE svg PUBLIC "-//W3C//DTD SVG 20010904//EN"
 "http://www.w3.org/TR/2001/REC-SVG-20010904/DTD/svg10.dtd">
<svg version="1.0" xmlns="http://www.w3.org/2000/svg"
 width="512.000000pt" height="512.000000pt" viewBox="0 0 512.000000 512.000000"
 preserveAspectRatio="xMidYMid meet">

<g transform="translate(0.000000,512.000000) scale(0.100000,-0.100000)"
fill="#000000" stroke="none">
<path d="M0 2560 l0 -2560 2560 0 2560 0 0 2560 0 2560 -2560 0 -2560 0 0
-2560z m2725 1870 c759 -72 1393 -580 1623 -1301 175 -547 88 -1150 -236
-1629 -215 -318 -535 -573 -887 -706 -109 -40 -175 -27 -190 38 -2 13 -6 172
-8 353 -2 320 -3 332 -26 390 -13 33 -38 81 -56 106 l-32 45 104 17 c342 55
568 215 672 478 49 125 65 224 66 409 0 146 -3 174 -23 240 -31 95 -70 173
-121 238 l-42 52 18 58 c25 86 22 254 -9 357 l-23 80 -54 3 c-91 5 -257 -58
-410 -155 l-54 -35 -101 21 c-261 54 -518 53 -772 -6 l-70 -16 -66 42 c-149
94 -314 155 -405 149 l-48 -3 -24 -80 c-30 -104 -34 -271 -8 -357 l18 -58 -42
-52 c-57 -71 -114 -196 -133 -290 -29 -139 -15 -379 30 -528 42 -141 129 -274
239 -363 111 -90 295 -162 479 -188 l84 -12 -33 -43 c-32 -41 -75 -139 -75
-169 0 -33 -16 -46 -79 -66 -42 -13 -94 -20 -141 -20 -141 -1 -238 58 -335
201 -56 83 -110 133 -180 166 -77 36 -195 30 -195 -10 0 -8 18 -29 40 -47 22
-19 58 -50 81 -69 53 -45 108 -125 164 -244 66 -137 133 -190 286 -222 72 -16
258 -14 315 2 20 5 21 2 27 -171 5 -140 4 -184 -7 -210 -35 -84 -112 -74 -361
49 -300 148 -539 358 -725 639 -487 732 -406 1696 196 2337 390 413 967 633
1529 580z"/>
</g>
</svg>
